<svg width="76" height="74" viewBox="0 0 76 74" fill="none" xmlns="http://www.w3.org/2000/svg">
<path d="M38.004 41.0081C37.6008 41.0081 37.1976 40.9156 36.8255 40.6997L9.43912 24.9439C8.32258 24.2964 7.95034 22.878 8.60165 21.768C9.25297 20.658 10.6486 20.2879 11.7962 20.9354L38.004 36.0131L64.0563 21.028C65.1728 20.3805 66.5995 20.7814 67.2508 21.8606C67.9021 22.9706 67.4993 24.3888 66.4137 25.0363L39.2136 40.6997C38.8104 40.8847 38.4072 41.0081 38.004 41.0081Z" fill="#2639ED"/>
<path d="M38.0059 68.9433C36.7343 68.9433 35.6798 67.895 35.6798 66.6308V38.665C35.6798 37.4008 36.7343 36.3525 38.0059 36.3525C39.2775 36.3525 40.332 37.4008 40.332 38.665V66.6308C40.332 67.895 39.2775 68.9433 38.0059 68.9433Z" fill="#2639ED"/>
<path d="M38.0025 70.1464C35.1801 70.1464 32.4818 69.4989 30.4348 68.3581L13.8728 59.2318C9.37566 56.7651 5.83999 50.8139 5.83999 45.6956V28.244C5.83999 23.1256 9.37566 17.2058 13.8728 14.7083L30.4348 5.58154C34.6529 3.2382 41.2901 3.2382 45.5391 5.58154L62.1011 14.7083C66.5983 17.175 70.134 23.1256 70.134 28.244V39.5289C70.134 40.7931 69.0795 41.8414 67.8079 41.8414C66.5363 41.8414 65.4817 40.7931 65.4817 39.5289V28.244C65.4817 24.8523 62.8455 20.4125 59.868 18.7783L43.306 9.65157C40.4837 8.07907 35.5523 8.07907 32.7299 9.65157L16.1679 18.7783C13.1595 20.4433 10.5542 24.8523 10.5542 28.244V45.6956C10.5542 49.0873 13.1905 53.5276 16.1679 55.1618L32.7299 64.2881C35.4593 65.7989 40.6077 65.7989 43.306 64.2881C44.4226 63.6714 45.8493 64.0726 46.4696 65.1826C47.0899 66.2926 46.6867 67.7106 45.5701 68.3273C43.5231 69.4989 40.8248 70.1464 38.0025 70.1464Z" fill="#2639ED"/>
<path d="M60.3367 68.2958C53.5754 68.2958 48.0858 62.8383 48.0858 56.1167C48.0858 49.395 53.5754 43.9375 60.3367 43.9375C67.0979 43.9375 72.5876 49.395 72.5876 56.1167C72.5876 62.8383 67.0979 68.2958 60.3367 68.2958ZM60.3367 48.5625C56.1497 48.5625 52.738 51.9542 52.738 56.1167C52.738 60.2792 56.1497 63.6708 60.3367 63.6708C64.5237 63.6708 67.9353 60.2792 67.9353 56.1167C67.9353 51.9542 64.5237 48.5625 60.3367 48.5625Z" fill="#2639ED"/>
<path d="M72.1208 70.1458C71.5315 70.1458 70.9422 69.93 70.477 69.4675L67.3755 66.3842C66.4761 65.49 66.4761 64.0097 67.3755 63.1155C68.275 62.2213 69.7637 62.2213 70.6631 63.1155L73.7646 66.1988C74.664 67.093 74.664 68.5733 73.7646 69.4675C73.2994 69.93 72.7101 70.1458 72.1208 70.1458Z" fill="#2639ED"/>
</svg>
