<svg width="76" height="74" viewBox="0 0 76 74" fill="none" xmlns="http://www.w3.org/2000/svg">
<path d="M55.8232 70.1458H20.218C12.4953 70.1458 6.23026 63.9175 6.23026 56.24V35.4891C6.23026 27.8117 12.4953 21.5833 20.218 21.5833H55.8232C63.5459 21.5833 69.8109 27.8117 69.8109 35.4891V39.9291C69.8109 41.1933 68.7564 42.2416 67.4848 42.2416H61.2198C60.1343 42.2416 59.1418 42.6425 58.4285 43.3825L58.3974 43.4133C57.529 44.2458 57.1258 45.3866 57.2189 46.5583C57.405 48.5933 59.3589 50.2275 61.592 50.2275H67.4848C68.7564 50.2275 69.8109 51.2758 69.8109 52.54V56.2091C69.8109 63.9175 63.5459 70.1458 55.8232 70.1458ZM20.218 26.2083C15.0695 26.2083 10.8825 30.3708 10.8825 35.4891V56.24C10.8825 61.3583 15.0695 65.5208 20.218 65.5208H55.8232C60.9717 65.5208 65.1587 61.3583 65.1587 56.24V54.8833H61.592C56.9087 54.8833 52.9388 51.43 52.5666 46.99C52.3185 44.4616 53.249 41.9641 55.1099 40.145C56.7226 38.5108 58.8937 37.6166 61.2198 37.6166H65.1587V35.4891C65.1587 30.3708 60.9717 26.2083 55.8232 26.2083H20.218Z" fill="#FF9900"/>
<path d="M8.55638 40.5767C7.28476 40.5767 6.23026 39.5284 6.23026 38.2642V24.1735C6.23026 19.5794 9.14566 15.4167 13.4567 13.7825L38.0826 4.53255C40.6259 3.57671 43.4482 3.916 45.6503 5.45767C47.8834 6.99934 49.186 9.49684 49.186 12.1793V23.8959C49.186 25.1601 48.1315 26.2084 46.8599 26.2084C45.5883 26.2084 44.5337 25.1601 44.5337 23.8959V12.1793C44.5337 11.0077 43.9755 9.92844 42.983 9.25011C41.9905 8.57177 40.812 8.41761 39.6954 8.84927L15.0695 18.0993C12.5573 19.0551 10.8515 21.491 10.8515 24.1735V38.2642C10.8825 39.5592 9.82799 40.5767 8.55638 40.5767Z" fill="#FF9900"/>
<path d="M61.5935 54.884C56.9103 54.884 52.9404 51.4306 52.5682 46.9906C52.3201 44.4315 53.2505 41.934 55.1114 40.1148C56.6932 38.5115 58.8642 37.6173 61.1904 37.6173H67.6415C70.712 37.7098 73.0691 40.1148 73.0691 43.0748V49.4265C73.0691 52.3865 70.7119 54.7915 67.7345 54.884H61.5935ZM67.5794 42.2423H61.2214C60.1358 42.2423 59.1434 42.6431 58.43 43.3831C57.5306 44.2465 57.0964 45.4181 57.2204 46.5898C57.4065 48.6248 59.3605 50.259 61.5935 50.259H67.6725C68.0757 50.259 68.4479 49.889 68.4479 49.4265V43.0748C68.4479 42.6123 68.0757 42.2731 67.5794 42.2423Z" fill="#FF9900"/>
<path d="M44.2236 39.3125H22.5131C21.2415 39.3125 20.187 38.2642 20.187 37C20.187 35.7358 21.2415 34.6875 22.5131 34.6875H44.2236C45.4952 34.6875 46.5497 35.7358 46.5497 37C46.5497 38.2642 45.4952 39.3125 44.2236 39.3125Z" fill="#FF9900"/>
</svg>
