<svg width="408" height="154" viewBox="0 0 408 154" fill="none" xmlns="http://www.w3.org/2000/svg">
<ellipse cx="214.005" cy="3.5" rx="3.52062" ry="3.5" fill="#E7F0FC"/>
<ellipse cx="214.005" cy="24.5" rx="3.52062" ry="3.5" fill="#E7F0FC"/>
<ellipse cx="214.005" cy="45.5" rx="3.52062" ry="3.5" fill="#E7F0FC"/>
<ellipse cx="214.005" cy="66.5" rx="3.52062" ry="3.5" fill="#E7F0FC"/>
<ellipse cx="214.005" cy="87.5" rx="3.52062" ry="3.5" fill="#E7F0FC"/>
<ellipse cx="214.005" cy="108.5" rx="3.52062" ry="3.5" fill="#E7F0FC"/>
<ellipse cx="214.005" cy="129.5" rx="3.52062" ry="3.5" fill="#E7F0FC"/>
<ellipse cx="214.005" cy="150.5" rx="3.52062" ry="3.5" fill="#E7F0FC"/>
<ellipse cx="235.129" cy="3.5" rx="3.52062" ry="3.5" fill="#E7F0FC"/>
<ellipse cx="235.129" cy="24.5" rx="3.52062" ry="3.5" fill="#E7F0FC"/>
<ellipse cx="235.129" cy="45.5" rx="3.52062" ry="3.5" fill="#E7F0FC"/>
<ellipse cx="235.129" cy="66.5" rx="3.52062" ry="3.5" fill="#E7F0FC"/>
<ellipse cx="235.129" cy="87.5" rx="3.52062" ry="3.5" fill="#E7F0FC"/>
<ellipse cx="235.129" cy="108.5" rx="3.52062" ry="3.5" fill="#E7F0FC"/>
<ellipse cx="235.129" cy="129.5" rx="3.52062" ry="3.5" fill="#E7F0FC"/>
<ellipse cx="235.129" cy="150.5" rx="3.52062" ry="3.5" fill="#E7F0FC"/>
<ellipse cx="256.253" cy="3.5" rx="3.52062" ry="3.5" fill="#E7F0FC"/>
<ellipse cx="256.253" cy="24.5" rx="3.52062" ry="3.5" fill="#E7F0FC"/>
<ellipse cx="256.253" cy="45.5" rx="3.52062" ry="3.5" fill="#E7F0FC"/>
<ellipse cx="256.253" cy="66.5" rx="3.52062" ry="3.5" fill="#E7F0FC"/>
<ellipse cx="256.253" cy="87.5" rx="3.52062" ry="3.5" fill="#E7F0FC"/>
<ellipse cx="256.253" cy="108.5" rx="3.52062" ry="3.5" fill="#E7F0FC"/>
<ellipse cx="256.253" cy="129.5" rx="3.52062" ry="3.5" fill="#E7F0FC"/>
<ellipse cx="256.253" cy="150.5" rx="3.52062" ry="3.5" fill="#E7F0FC"/>
<ellipse cx="277.376" cy="3.5" rx="3.52062" ry="3.5" fill="#E7F0FC"/>
<ellipse cx="277.376" cy="24.5" rx="3.52062" ry="3.5" fill="#E7F0FC"/>
<ellipse cx="277.376" cy="45.5" rx="3.52062" ry="3.5" fill="#E7F0FC"/>
<ellipse cx="277.376" cy="66.5" rx="3.52062" ry="3.5" fill="#E7F0FC"/>
<ellipse cx="277.376" cy="87.5" rx="3.52062" ry="3.5" fill="#E7F0FC"/>
<ellipse cx="277.376" cy="108.5" rx="3.52062" ry="3.5" fill="#E7F0FC"/>
<ellipse cx="277.376" cy="129.5" rx="3.52062" ry="3.5" fill="#E7F0FC"/>
<ellipse cx="277.376" cy="150.5" rx="3.52062" ry="3.5" fill="#E7F0FC"/>
<ellipse cx="298.5" cy="3.5" rx="3.52062" ry="3.5" fill="#E7F0FC"/>
<ellipse cx="298.5" cy="24.5" rx="3.52062" ry="3.5" fill="#E7F0FC"/>
<ellipse cx="298.5" cy="45.5" rx="3.52062" ry="3.5" fill="#E7F0FC"/>
<ellipse cx="298.5" cy="66.5" rx="3.52062" ry="3.5" fill="#E7F0FC"/>
<ellipse cx="298.5" cy="87.5" rx="3.52062" ry="3.5" fill="#E7F0FC"/>
<ellipse cx="298.5" cy="108.5" rx="3.52062" ry="3.5" fill="#E7F0FC"/>
<ellipse cx="298.5" cy="129.5" rx="3.52062" ry="3.5" fill="#E7F0FC"/>
<ellipse cx="298.5" cy="150.5" rx="3.52062" ry="3.5" fill="#E7F0FC"/>
<ellipse cx="319.624" cy="3.5" rx="3.52062" ry="3.5" fill="#E7F0FC"/>
<ellipse cx="319.624" cy="24.5" rx="3.52062" ry="3.5" fill="#E7F0FC"/>
<ellipse cx="319.624" cy="45.5" rx="3.52062" ry="3.5" fill="#E7F0FC"/>
<ellipse cx="319.624" cy="66.5" rx="3.52062" ry="3.5" fill="#E7F0FC"/>
<ellipse cx="319.624" cy="87.5" rx="3.52062" ry="3.5" fill="#E7F0FC"/>
<ellipse cx="319.624" cy="108.5" rx="3.52062" ry="3.5" fill="#E7F0FC"/>
<ellipse cx="319.624" cy="129.5" rx="3.52062" ry="3.5" fill="#E7F0FC"/>
<ellipse cx="319.624" cy="150.5" rx="3.52062" ry="3.5" fill="#E7F0FC"/>
<ellipse cx="340.747" cy="3.5" rx="3.52062" ry="3.5" fill="#E7F0FC"/>
<ellipse cx="340.747" cy="24.5" rx="3.52062" ry="3.5" fill="#E7F0FC"/>
<ellipse cx="340.747" cy="45.5" rx="3.52062" ry="3.5" fill="#E7F0FC"/>
<ellipse cx="340.747" cy="66.5" rx="3.52062" ry="3.5" fill="#E7F0FC"/>
<ellipse cx="340.747" cy="87.5" rx="3.52062" ry="3.5" fill="#E7F0FC"/>
<ellipse cx="340.747" cy="108.5" rx="3.52062" ry="3.5" fill="#E7F0FC"/>
<ellipse cx="340.747" cy="129.5" rx="3.52062" ry="3.5" fill="#E7F0FC"/>
<ellipse cx="340.747" cy="150.5" rx="3.52062" ry="3.5" fill="#E7F0FC"/>
<ellipse cx="361.871" cy="3.5" rx="3.52062" ry="3.5" fill="#E7F0FC"/>
<ellipse cx="361.871" cy="24.5" rx="3.52062" ry="3.5" fill="#E7F0FC"/>
<ellipse cx="361.871" cy="45.5" rx="3.52062" ry="3.5" fill="#E7F0FC"/>
<ellipse cx="361.871" cy="66.5" rx="3.52062" ry="3.5" fill="#E7F0FC"/>
<ellipse cx="361.871" cy="87.5" rx="3.52062" ry="3.5" fill="#E7F0FC"/>
<ellipse cx="361.871" cy="108.5" rx="3.52062" ry="3.5" fill="#E7F0FC"/>
<ellipse cx="361.871" cy="129.5" rx="3.52062" ry="3.5" fill="#E7F0FC"/>
<ellipse cx="361.871" cy="150.5" rx="3.52062" ry="3.5" fill="#E7F0FC"/>
<ellipse cx="382.995" cy="3.5" rx="3.52062" ry="3.5" fill="#E7F0FC"/>
<ellipse cx="382.995" cy="24.5" rx="3.52062" ry="3.5" fill="#E7F0FC"/>
<ellipse cx="382.995" cy="45.5" rx="3.52062" ry="3.5" fill="#E7F0FC"/>
<ellipse cx="382.995" cy="66.5" rx="3.52062" ry="3.5" fill="#E7F0FC"/>
<ellipse cx="382.995" cy="87.5" rx="3.52062" ry="3.5" fill="#E7F0FC"/>
<ellipse cx="382.995" cy="108.5" rx="3.52062" ry="3.5" fill="#E7F0FC"/>
<ellipse cx="382.995" cy="129.5" rx="3.52062" ry="3.5" fill="#E7F0FC"/>
<ellipse cx="382.995" cy="150.5" rx="3.52062" ry="3.5" fill="#E7F0FC"/>
<ellipse cx="404.119" cy="3.5" rx="3.52062" ry="3.5" fill="#E7F0FC"/>
<ellipse cx="404.119" cy="24.5" rx="3.52062" ry="3.5" fill="#E7F0FC"/>
<ellipse cx="404.119" cy="45.5" rx="3.52062" ry="3.5" fill="#E7F0FC"/>
<ellipse cx="404.119" cy="66.5" rx="3.52062" ry="3.5" fill="#E7F0FC"/>
<ellipse cx="404.119" cy="87.5" rx="3.52062" ry="3.5" fill="#E7F0FC"/>
<ellipse cx="404.119" cy="108.5" rx="3.52062" ry="3.5" fill="#E7F0FC"/>
<ellipse cx="404.119" cy="129.5" rx="3.52062" ry="3.5" fill="#E7F0FC"/>
<ellipse cx="404.119" cy="150.5" rx="3.52062" ry="3.5" fill="#E7F0FC"/>
<ellipse cx="3.77391" cy="3.5" rx="3.52062" ry="3.5" fill="#E7F0FC"/>
<ellipse cx="3.77391" cy="24.5" rx="3.52062" ry="3.5" fill="#E7F0FC"/>
<ellipse cx="3.77391" cy="45.5" rx="3.52062" ry="3.5" fill="#E7F0FC"/>
<ellipse cx="3.77391" cy="66.5" rx="3.52062" ry="3.5" fill="#E7F0FC"/>
<ellipse cx="3.77391" cy="87.5" rx="3.52062" ry="3.5" fill="#E7F0FC"/>
<ellipse cx="3.77391" cy="108.5" rx="3.52062" ry="3.5" fill="#E7F0FC"/>
<ellipse cx="3.77391" cy="129.5" rx="3.52062" ry="3.5" fill="#E7F0FC"/>
<ellipse cx="3.77391" cy="150.5" rx="3.52062" ry="3.5" fill="#E7F0FC"/>
<ellipse cx="24.8976" cy="3.5" rx="3.52062" ry="3.5" fill="#E7F0FC"/>
<ellipse cx="24.8976" cy="24.5" rx="3.52062" ry="3.5" fill="#E7F0FC"/>
<ellipse cx="24.8976" cy="45.5" rx="3.52062" ry="3.5" fill="#E7F0FC"/>
<ellipse cx="24.8976" cy="66.5" rx="3.52062" ry="3.5" fill="#E7F0FC"/>
<ellipse cx="24.8976" cy="87.5" rx="3.52062" ry="3.5" fill="#E7F0FC"/>
<ellipse cx="24.8976" cy="108.5" rx="3.52062" ry="3.5" fill="#E7F0FC"/>
<ellipse cx="24.8976" cy="129.5" rx="3.52062" ry="3.5" fill="#E7F0FC"/>
<ellipse cx="24.8976" cy="150.5" rx="3.52062" ry="3.5" fill="#E7F0FC"/>
<ellipse cx="46.0214" cy="3.5" rx="3.52062" ry="3.5" fill="#E7F0FC"/>
<ellipse cx="46.0214" cy="24.5" rx="3.52062" ry="3.5" fill="#E7F0FC"/>
<ellipse cx="46.0214" cy="45.5" rx="3.52062" ry="3.5" fill="#E7F0FC"/>
<ellipse cx="46.0214" cy="66.5" rx="3.52062" ry="3.5" fill="#E7F0FC"/>
<ellipse cx="46.0214" cy="87.5" rx="3.52062" ry="3.5" fill="#E7F0FC"/>
<ellipse cx="46.0214" cy="108.5" rx="3.52062" ry="3.5" fill="#E7F0FC"/>
<ellipse cx="46.0214" cy="129.5" rx="3.52062" ry="3.5" fill="#E7F0FC"/>
<ellipse cx="46.0214" cy="150.5" rx="3.52062" ry="3.5" fill="#E7F0FC"/>
<ellipse cx="67.1451" cy="3.5" rx="3.52062" ry="3.5" fill="#E7F0FC"/>
<ellipse cx="67.1451" cy="24.5" rx="3.52062" ry="3.5" fill="#E7F0FC"/>
<ellipse cx="67.1451" cy="45.5" rx="3.52062" ry="3.5" fill="#E7F0FC"/>
<ellipse cx="67.1451" cy="66.5" rx="3.52062" ry="3.5" fill="#E7F0FC"/>
<ellipse cx="67.1451" cy="87.5" rx="3.52062" ry="3.5" fill="#E7F0FC"/>
<ellipse cx="67.1451" cy="108.5" rx="3.52062" ry="3.5" fill="#E7F0FC"/>
<ellipse cx="67.1451" cy="129.5" rx="3.52062" ry="3.5" fill="#E7F0FC"/>
<ellipse cx="67.1451" cy="150.5" rx="3.52062" ry="3.5" fill="#E7F0FC"/>
<ellipse cx="88.2688" cy="3.5" rx="3.52062" ry="3.5" fill="#E7F0FC"/>
<ellipse cx="88.2688" cy="24.5" rx="3.52062" ry="3.5" fill="#E7F0FC"/>
<ellipse cx="88.2688" cy="45.5" rx="3.52062" ry="3.5" fill="#E7F0FC"/>
<ellipse cx="88.2688" cy="66.5" rx="3.52062" ry="3.5" fill="#E7F0FC"/>
<ellipse cx="88.2688" cy="87.5" rx="3.52062" ry="3.5" fill="#E7F0FC"/>
<ellipse cx="88.2688" cy="108.5" rx="3.52062" ry="3.5" fill="#E7F0FC"/>
<ellipse cx="88.2688" cy="129.5" rx="3.52062" ry="3.5" fill="#E7F0FC"/>
<ellipse cx="88.2688" cy="150.5" rx="3.52062" ry="3.5" fill="#E7F0FC"/>
<ellipse cx="109.393" cy="3.5" rx="3.52062" ry="3.5" fill="#E7F0FC"/>
<ellipse cx="109.393" cy="24.5" rx="3.52062" ry="3.5" fill="#E7F0FC"/>
<ellipse cx="109.393" cy="45.5" rx="3.52062" ry="3.5" fill="#E7F0FC"/>
<ellipse cx="109.393" cy="66.5" rx="3.52062" ry="3.5" fill="#E7F0FC"/>
<ellipse cx="109.393" cy="87.5" rx="3.52062" ry="3.5" fill="#E7F0FC"/>
<ellipse cx="109.393" cy="108.5" rx="3.52062" ry="3.5" fill="#E7F0FC"/>
<ellipse cx="109.393" cy="129.5" rx="3.52062" ry="3.5" fill="#E7F0FC"/>
<ellipse cx="109.393" cy="150.5" rx="3.52062" ry="3.5" fill="#E7F0FC"/>
<ellipse cx="130.516" cy="3.5" rx="3.52062" ry="3.5" fill="#E7F0FC"/>
<ellipse cx="130.516" cy="24.5" rx="3.52062" ry="3.5" fill="#E7F0FC"/>
<ellipse cx="130.516" cy="45.5" rx="3.52062" ry="3.5" fill="#E7F0FC"/>
<ellipse cx="130.516" cy="66.5" rx="3.52062" ry="3.5" fill="#E7F0FC"/>
<ellipse cx="130.516" cy="87.5" rx="3.52062" ry="3.5" fill="#E7F0FC"/>
<ellipse cx="130.516" cy="108.5" rx="3.52062" ry="3.5" fill="#E7F0FC"/>
<ellipse cx="130.516" cy="129.5" rx="3.52062" ry="3.5" fill="#E7F0FC"/>
<ellipse cx="130.516" cy="150.5" rx="3.52062" ry="3.5" fill="#E7F0FC"/>
<ellipse cx="151.64" cy="3.5" rx="3.52062" ry="3.5" fill="#E7F0FC"/>
<ellipse cx="151.64" cy="24.5" rx="3.52062" ry="3.5" fill="#E7F0FC"/>
<ellipse cx="151.64" cy="45.5" rx="3.52062" ry="3.5" fill="#E7F0FC"/>
<ellipse cx="151.64" cy="66.5" rx="3.52062" ry="3.5" fill="#E7F0FC"/>
<ellipse cx="151.64" cy="87.5" rx="3.52062" ry="3.5" fill="#E7F0FC"/>
<ellipse cx="151.64" cy="108.5" rx="3.52062" ry="3.5" fill="#E7F0FC"/>
<ellipse cx="151.64" cy="129.5" rx="3.52062" ry="3.5" fill="#E7F0FC"/>
<ellipse cx="151.64" cy="150.5" rx="3.52062" ry="3.5" fill="#E7F0FC"/>
<ellipse cx="172.764" cy="3.5" rx="3.52062" ry="3.5" fill="#E7F0FC"/>
<ellipse cx="172.764" cy="24.5" rx="3.52062" ry="3.5" fill="#E7F0FC"/>
<ellipse cx="172.764" cy="45.5" rx="3.52062" ry="3.5" fill="#E7F0FC"/>
<ellipse cx="172.764" cy="66.5" rx="3.52062" ry="3.5" fill="#E7F0FC"/>
<ellipse cx="172.764" cy="87.5" rx="3.52062" ry="3.5" fill="#E7F0FC"/>
<ellipse cx="172.764" cy="108.5" rx="3.52062" ry="3.5" fill="#E7F0FC"/>
<ellipse cx="172.764" cy="129.5" rx="3.52062" ry="3.5" fill="#E7F0FC"/>
<ellipse cx="172.764" cy="150.5" rx="3.52062" ry="3.5" fill="#E7F0FC"/>
<ellipse cx="193.887" cy="3.5" rx="3.52062" ry="3.5" fill="#E7F0FC"/>
<ellipse cx="193.887" cy="24.5" rx="3.52062" ry="3.5" fill="#E7F0FC"/>
<ellipse cx="193.887" cy="45.5" rx="3.52062" ry="3.5" fill="#E7F0FC"/>
<ellipse cx="193.887" cy="66.5" rx="3.52062" ry="3.5" fill="#E7F0FC"/>
<ellipse cx="193.887" cy="87.5" rx="3.52062" ry="3.5" fill="#E7F0FC"/>
<ellipse cx="193.887" cy="108.5" rx="3.52062" ry="3.5" fill="#E7F0FC"/>
<ellipse cx="193.887" cy="129.5" rx="3.52062" ry="3.5" fill="#E7F0FC"/>
<ellipse cx="193.887" cy="150.5" rx="3.52062" ry="3.5" fill="#E7F0FC"/>
</svg>
