<svg width="39" height="36" viewBox="0 0 39 36" fill="none" xmlns="http://www.w3.org/2000/svg">
<path d="M19.4859 35.9998C30.037 35.9998 38.5904 27.9409 38.5904 17.9998C38.5904 8.05863 30.037 -0.000244141 19.4859 -0.000244141C8.93477 -0.000244141 0.381409 8.05863 0.381409 17.9998C0.381409 27.9409 8.93477 35.9998 19.4859 35.9998Z" fill="#007AB9"/>
<path d="M30.9006 19.4483V26.8693H26.3341V19.9456C26.3341 18.2071 25.6748 17.0199 24.0214 17.0199C22.7596 17.0199 22.0101 17.8192 21.679 18.5931C21.5588 18.8697 21.5278 19.2538 21.5278 19.6417V26.8689H16.961C16.961 26.8689 17.0223 15.1425 16.961 13.9287H21.5282V15.7625C21.519 15.7769 21.506 15.791 21.4979 15.8048H21.5282V15.7625C22.1351 14.8826 23.2173 13.6248 25.6438 13.6248C28.6482 13.6248 30.9006 15.4743 30.9006 19.4483ZM12.1837 7.69104C10.6216 7.69104 9.59955 8.65717 9.59955 9.92652C9.59955 11.1689 10.5919 12.163 12.1237 12.163H12.1534C13.7462 12.163 14.7365 11.1689 14.7365 9.92652C14.7062 8.65717 13.7462 7.69104 12.1837 7.69104ZM9.87097 26.8693H14.4361V13.9287H9.87097V26.8693Z" fill="#F1F2F2"/>
</svg>
