<svg width="76" height="74" viewBox="0 0 76 74" fill="none" xmlns="http://www.w3.org/2000/svg">
<path d="M32.1597 55.9616H20.4051C19.1335 55.9616 18.0789 54.9132 18.0789 53.6491V37.8624C18.0789 34.6558 20.7152 32.0346 23.9407 32.0346H32.1597C33.4313 32.0346 34.4858 33.0829 34.4858 34.3471V53.6179C34.4858 54.9129 33.4313 55.9616 32.1597 55.9616ZM22.7312 51.3366H29.8336V36.6907H23.9407C23.2894 36.6907 22.7312 37.2146 22.7312 37.8929V51.3366Z" fill="#00DA71"/>
<path d="M43.8812 55.9616H32.1265C30.855 55.9616 29.8004 54.9133 29.8004 53.6491V23.8638C29.8004 20.6572 32.4367 18.0363 35.6622 18.0363H40.3765C43.6021 18.0363 46.2383 20.6572 46.2383 23.8638V53.6491C46.2073 54.9133 45.1838 55.9616 43.8812 55.9616ZM34.4837 51.3366H41.5861V23.8638C41.5861 23.2163 41.0588 22.6613 40.3765 22.6613H35.6622C35.0109 22.6613 34.4527 23.1855 34.4527 23.8638V51.3366H34.4837Z" fill="#00DA71"/>
<path d="M55.639 55.9616H43.8843C42.6127 55.9616 41.5582 54.9133 41.5582 53.6491V39.6196C41.5582 38.3555 42.6127 37.3071 43.8843 37.3071H52.1033C55.3288 37.3071 57.9651 39.928 57.9651 43.1346V53.6491C57.9651 54.9133 56.9416 55.9616 55.639 55.9616ZM46.2104 51.3366H53.3128V43.1346C53.3128 42.4871 52.7856 41.9321 52.1033 41.9321H46.2104V51.3366Z" fill="#00DA71"/>
<path d="M47.3251 70.1459H28.7161C11.875 70.1459 4.6795 62.9925 4.6795 46.25V27.75C4.6795 11.0075 11.875 3.85419 28.7161 3.85419H47.3251C64.1662 3.85419 71.3617 11.0075 71.3617 27.75V46.25C71.3617 62.9925 64.1662 70.1459 47.3251 70.1459ZM28.7161 8.47919C14.4182 8.47919 9.33175 13.5359 9.33175 27.75V46.25C9.33175 60.4642 14.4182 65.5209 28.7161 65.5209H47.3251C61.623 65.5209 66.7095 60.4642 66.7095 46.25V27.75C66.7095 13.5359 61.623 8.47919 47.3251 8.47919H28.7161Z" fill="#00DA71"/>
</svg>
