<svg width="177" height="154" viewBox="0 0 177 154" fill="none" xmlns="http://www.w3.org/2000/svg">
<ellipse cx="3.54106" cy="3.5" rx="3.52201" ry="3.5" fill="#DFEEFF"/>
<ellipse cx="3.54106" cy="24.5" rx="3.52201" ry="3.5" fill="#DFEEFF"/>
<ellipse cx="3.54106" cy="45.5" rx="3.52201" ry="3.5" fill="#DFEEFF"/>
<ellipse cx="3.54106" cy="66.5" rx="3.52201" ry="3.5" fill="#DFEEFF"/>
<ellipse cx="3.54106" cy="87.5" rx="3.52201" ry="3.5" fill="#DFEEFF"/>
<ellipse cx="3.54106" cy="108.5" rx="3.52201" ry="3.5" fill="#DFEEFF"/>
<ellipse cx="3.54106" cy="129.5" rx="3.52201" ry="3.5" fill="#DFEEFF"/>
<ellipse cx="3.54106" cy="150.5" rx="3.52201" ry="3.5" fill="#DFEEFF"/>
<ellipse cx="24.6731" cy="3.5" rx="3.52201" ry="3.5" fill="#DFEEFF"/>
<ellipse cx="24.6731" cy="24.5" rx="3.52201" ry="3.5" fill="#DFEEFF"/>
<ellipse cx="24.6731" cy="45.5" rx="3.52201" ry="3.5" fill="#DFEEFF"/>
<ellipse cx="24.6731" cy="66.5" rx="3.52201" ry="3.5" fill="#DFEEFF"/>
<ellipse cx="24.6731" cy="87.5" rx="3.52201" ry="3.5" fill="#DFEEFF"/>
<ellipse cx="24.6731" cy="108.5" rx="3.52201" ry="3.5" fill="#DFEEFF"/>
<ellipse cx="24.6731" cy="129.5" rx="3.52201" ry="3.5" fill="#DFEEFF"/>
<ellipse cx="24.6731" cy="150.5" rx="3.52201" ry="3.5" fill="#DFEEFF"/>
<ellipse cx="45.8052" cy="3.5" rx="3.52201" ry="3.5" fill="#DFEEFF"/>
<ellipse cx="45.8052" cy="24.5" rx="3.52201" ry="3.5" fill="#DFEEFF"/>
<ellipse cx="45.8052" cy="45.5" rx="3.52201" ry="3.5" fill="#DFEEFF"/>
<ellipse cx="45.8052" cy="66.5" rx="3.52201" ry="3.5" fill="#DFEEFF"/>
<ellipse cx="45.8052" cy="87.5" rx="3.52201" ry="3.5" fill="#DFEEFF"/>
<ellipse cx="45.8052" cy="108.5" rx="3.52201" ry="3.5" fill="#DFEEFF"/>
<ellipse cx="45.8052" cy="129.5" rx="3.52201" ry="3.5" fill="#DFEEFF"/>
<ellipse cx="45.8052" cy="150.5" rx="3.52201" ry="3.5" fill="#DFEEFF"/>
<ellipse cx="66.9372" cy="3.5" rx="3.52201" ry="3.5" fill="#DFEEFF"/>
<ellipse cx="66.9372" cy="24.5" rx="3.52201" ry="3.5" fill="#DFEEFF"/>
<ellipse cx="66.9372" cy="45.5" rx="3.52201" ry="3.5" fill="#DFEEFF"/>
<ellipse cx="66.9372" cy="66.5" rx="3.52201" ry="3.5" fill="#DFEEFF"/>
<ellipse cx="66.9372" cy="87.5" rx="3.52201" ry="3.5" fill="#DFEEFF"/>
<ellipse cx="66.9372" cy="108.5" rx="3.52201" ry="3.5" fill="#DFEEFF"/>
<ellipse cx="66.9372" cy="129.5" rx="3.52201" ry="3.5" fill="#DFEEFF"/>
<ellipse cx="66.9372" cy="150.5" rx="3.52201" ry="3.5" fill="#DFEEFF"/>
<ellipse cx="88.0693" cy="3.5" rx="3.52201" ry="3.5" fill="#DFEEFF"/>
<ellipse cx="88.0693" cy="24.5" rx="3.52201" ry="3.5" fill="#DFEEFF"/>
<ellipse cx="88.0693" cy="45.5" rx="3.52201" ry="3.5" fill="#DFEEFF"/>
<ellipse cx="88.0693" cy="66.5" rx="3.52201" ry="3.5" fill="#DFEEFF"/>
<ellipse cx="88.0693" cy="87.5" rx="3.52201" ry="3.5" fill="#DFEEFF"/>
<ellipse cx="88.0693" cy="108.5" rx="3.52201" ry="3.5" fill="#DFEEFF"/>
<ellipse cx="88.0693" cy="129.5" rx="3.52201" ry="3.5" fill="#DFEEFF"/>
<ellipse cx="88.0693" cy="150.5" rx="3.52201" ry="3.5" fill="#DFEEFF"/>
<ellipse cx="109.201" cy="3.5" rx="3.52201" ry="3.5" fill="#DFEEFF"/>
<ellipse cx="109.201" cy="24.5" rx="3.52201" ry="3.5" fill="#DFEEFF"/>
<ellipse cx="109.201" cy="45.5" rx="3.52201" ry="3.5" fill="#DFEEFF"/>
<ellipse cx="109.201" cy="66.5" rx="3.52201" ry="3.5" fill="#DFEEFF"/>
<ellipse cx="109.201" cy="87.5" rx="3.52201" ry="3.5" fill="#DFEEFF"/>
<ellipse cx="109.201" cy="108.5" rx="3.52201" ry="3.5" fill="#DFEEFF"/>
<ellipse cx="109.201" cy="129.5" rx="3.52201" ry="3.5" fill="#DFEEFF"/>
<ellipse cx="109.201" cy="150.5" rx="3.52201" ry="3.5" fill="#DFEEFF"/>
<ellipse cx="130.333" cy="3.5" rx="3.52201" ry="3.5" fill="#DFEEFF"/>
<ellipse cx="130.333" cy="24.5" rx="3.52201" ry="3.5" fill="#DFEEFF"/>
<ellipse cx="130.333" cy="45.5" rx="3.52201" ry="3.5" fill="#DFEEFF"/>
<ellipse cx="130.333" cy="66.5" rx="3.52201" ry="3.5" fill="#DFEEFF"/>
<ellipse cx="130.333" cy="87.5" rx="3.52201" ry="3.5" fill="#DFEEFF"/>
<ellipse cx="130.333" cy="108.5" rx="3.52201" ry="3.5" fill="#DFEEFF"/>
<ellipse cx="130.333" cy="129.5" rx="3.52201" ry="3.5" fill="#DFEEFF"/>
<ellipse cx="130.333" cy="150.5" rx="3.52201" ry="3.5" fill="#DFEEFF"/>
<ellipse cx="151.466" cy="3.5" rx="3.52201" ry="3.5" fill="#DFEEFF"/>
<ellipse cx="151.466" cy="24.5" rx="3.52201" ry="3.5" fill="#DFEEFF"/>
<ellipse cx="151.466" cy="45.5" rx="3.52201" ry="3.5" fill="#DFEEFF"/>
<ellipse cx="151.466" cy="66.5" rx="3.52201" ry="3.5" fill="#DFEEFF"/>
<ellipse cx="151.466" cy="87.5" rx="3.52201" ry="3.5" fill="#DFEEFF"/>
<ellipse cx="151.466" cy="108.5" rx="3.52201" ry="3.5" fill="#DFEEFF"/>
<ellipse cx="151.466" cy="129.5" rx="3.52201" ry="3.5" fill="#DFEEFF"/>
<ellipse cx="151.466" cy="150.5" rx="3.52201" ry="3.5" fill="#DFEEFF"/>
<ellipse cx="172.598" cy="3.5" rx="3.52201" ry="3.5" fill="#DFEEFF"/>
<ellipse cx="172.598" cy="24.5" rx="3.52201" ry="3.5" fill="#DFEEFF"/>
<ellipse cx="172.598" cy="45.5" rx="3.52201" ry="3.5" fill="#DFEEFF"/>
<ellipse cx="172.598" cy="66.5" rx="3.52201" ry="3.5" fill="#DFEEFF"/>
<ellipse cx="172.598" cy="87.5" rx="3.52201" ry="3.5" fill="#DFEEFF"/>
<ellipse cx="172.598" cy="108.5" rx="3.52201" ry="3.5" fill="#DFEEFF"/>
<ellipse cx="172.598" cy="129.5" rx="3.52201" ry="3.5" fill="#DFEEFF"/>
<ellipse cx="172.598" cy="150.5" rx="3.52201" ry="3.5" fill="#DFEEFF"/>
</svg>
