<svg width="39" height="36" viewBox="0 0 39 36" fill="none" xmlns="http://www.w3.org/2000/svg">
<path d="M19.2954 35.9997C29.8464 35.9997 38.3997 27.9409 38.3997 17.9998C38.3997 8.0588 29.8464 0 19.2954 0C8.74439 0 0.191101 8.0588 0.191101 17.9998C0.191101 27.9409 8.74439 35.9997 19.2954 35.9997Z" fill="#55ACEE"/>
<path d="M30.9974 12.9359C30.1787 13.278 29.298 13.5093 28.3745 13.6126C29.3174 13.0803 30.0411 12.238 30.3827 11.2328C29.5003 11.7259 28.5226 12.0837 27.4829 12.2766C26.6499 11.4407 25.4631 10.9183 24.1489 10.9183C21.6274 10.9183 19.5824 12.8451 19.5824 15.2208C19.5824 15.558 19.6229 15.8863 19.7013 16.2014C15.9061 16.022 12.5411 14.3092 10.2887 11.7054C9.89574 12.3407 9.67029 13.0803 9.67029 13.8687C9.67029 15.361 10.4771 16.6785 11.7017 17.4498C10.9535 17.4277 10.2489 17.2342 9.63351 16.9111C9.63317 16.9294 9.63317 16.9477 9.63317 16.9657C9.63317 19.0503 11.2079 20.7891 13.2965 21.1841C12.9137 21.2829 12.5095 21.3352 12.0937 21.3352C11.7987 21.3352 11.513 21.3086 11.2344 21.2585C11.8154 22.9674 13.5015 24.2114 15.5002 24.2464C13.9371 25.4005 11.9683 26.0882 9.82831 26.0882C9.46051 26.0882 9.09612 26.0679 8.73956 26.0278C10.7594 27.249 13.1603 27.961 15.7389 27.961C24.1383 27.961 28.7317 21.4051 28.7317 15.7191C28.7317 15.5327 28.7273 15.3469 28.7184 15.1627C29.6113 14.5563 30.3854 13.7987 30.9974 12.9359Z" fill="#F1F2F2"/>
</svg>
