<svg width="76" height="74" viewBox="0 0 76 74" fill="none" xmlns="http://www.w3.org/2000/svg">
<path d="M28.7043 54.7289C28.3632 54.7289 27.991 54.6364 27.6808 54.4822C25.2927 53.2797 23.2457 51.4914 21.757 49.2714C20.5164 47.4214 20.5164 45.0472 21.757 43.1972C23.2457 40.9772 25.2927 39.1889 27.6808 38.0172C28.8284 37.4314 30.2241 37.9247 30.8133 39.0655C31.4026 40.2064 30.9374 41.5939 29.7588 42.1797C28.084 43.0122 26.6573 44.2764 25.6338 45.818C25.4477 46.0955 25.4477 46.4655 25.6338 46.7739C26.6573 48.3155 28.084 49.5797 29.7588 50.4122C30.9064 50.998 31.3716 52.3855 30.8133 53.5264C30.3791 54.2664 29.5417 54.7289 28.7043 54.7289Z" fill="#FF007A"/>
<path d="M47.9592 54.7288C47.0908 54.7288 46.2844 54.2663 45.8812 53.4647C45.2919 52.3238 45.7572 50.9363 46.9357 50.3505C48.6105 49.518 50.0372 48.2538 51.0607 46.7122C51.2468 46.4347 51.2468 46.0647 51.0607 45.7563C50.0372 44.2147 48.6105 42.9505 46.9357 42.118C45.7882 41.5322 45.3229 40.1447 45.8812 39.0038C46.4705 37.863 47.8662 37.4005 49.0137 37.9555C51.4019 39.158 53.4489 40.9463 54.9376 43.1663C56.1782 45.0163 56.1782 47.3905 54.9376 49.2405C53.4489 51.4605 51.4019 53.2488 49.0137 54.4205C48.6416 54.6363 48.3004 54.7288 47.9592 54.7288Z" fill="#FF007A"/>
<path d="M47.3104 70.1459H28.7014C11.8603 70.1459 4.6648 62.9925 4.6648 46.25V27.75C4.6648 11.0075 11.8603 3.85419 28.7014 3.85419H47.3104C64.1515 3.85419 71.347 11.0075 71.347 27.75V46.25C71.347 62.9925 64.1515 70.1459 47.3104 70.1459ZM28.7014 8.47919C14.4035 8.47919 9.31704 13.5359 9.31704 27.75V46.25C9.31704 60.4642 14.4035 65.5209 28.7014 65.5209H47.3104C61.6083 65.5209 66.6948 60.4642 66.6948 46.25V27.75C66.6948 13.5359 61.6083 8.47919 47.3104 8.47919H28.7014Z" fill="#FF007A"/>
<path d="M7.70572 27.01C6.43411 27.01 5.3796 25.9617 5.3796 24.6975C5.3796 23.4333 6.40309 22.385 7.70572 22.385L67.3166 22.3542C68.5882 22.3542 69.6427 23.4025 69.6427 24.6667C69.6427 25.9308 68.6192 26.9792 67.3166 26.9792L7.70572 27.01Z" fill="#FF007A"/>
</svg>
